HIERARCHY
ROOT Hips
{
	OFFSET 0.000000 0.000000 0.000000
	CHANNELS 6 Xposition Yposition Zposition Xrotation Yrotation Zrotation
	JOINT LeftUpLeg_virtual
	{
		OFFSET 0.000000 0.000000 0.000000
		CHANNELS 3 Xrotation Yrotation Zrotation
		JOINT LeftUpLeg
		{
			OFFSET 0.086025 -0.002322 0.060046
			CHANNELS 3 Xrotation Yrotation Zrotation
			JOINT LeftLeg
			{
				OFFSET 0.005130 0.001862 0.314250
				CHANNELS 3 Xrotation Yrotation Zrotation
				JOINT LeftFoot
				{
					OFFSET 0.029099 0.003055 0.305414
					CHANNELS 3 Xrotation Yrotation Zrotation
					JOINT LeftToeBase
					{
						OFFSET 0.032406 0.158115 0.089037
						CHANNELS 3 Xrotation Yrotation Zrotation
						JOINT LeftToe_End
						{
							OFFSET 0.020098 0.068010 -0.003802
							CHANNELS 3 Xrotation Yrotation Zrotation
							End Site
							{
								OFFSET 0 0 0
							}
						}
					}
				}
			}
		}
	}
	JOINT RightUpLeg_virtual
	{
		OFFSET 0.000000 0.000000 0.000000
		CHANNELS 3 Xrotation Yrotation Zrotation
		JOINT RightUpLeg
		{
			OFFSET -0.086024 0.004521 0.060047
			CHANNELS 3 Xrotation Yrotation Zrotation
			JOINT RightLeg
			{
				OFFSET -0.005129 0.001774 0.314251
				CHANNELS 3 Xrotation Yrotation Zrotation
				JOINT RightFoot
				{
					OFFSET -0.029099 0.004797 0.305414
					CHANNELS 3 Xrotation Yrotation Zrotation
					JOINT RightToeBase
					{
						OFFSET -0.032405 0.159308 0.089036
						CHANNELS 3 Xrotation Yrotation Zrotation
						JOINT RightToe_End
						{
							OFFSET -0.020098 0.066652 -0.003802
							CHANNELS 3 Xrotation Yrotation Zrotation
							End Site
							{
								OFFSET 0 0 0
							}
						}
					}
				}
			}
		}
	}
	JOINT Spine_virtual
	{
		OFFSET 0.000000 0.000000 0.000000
		CHANNELS 3 Xrotation Yrotation Zrotation
		JOINT Spine
		{
			OFFSET 0.000000 -0.008525 -0.108039
			CHANNELS 3 Xrotation Yrotation Zrotation
			JOINT Spine1
			{
				OFFSET 0.000000 -0.009946 -0.126046
				CHANNELS 3 Xrotation Yrotation Zrotation
				JOINT Spine2
				{
					OFFSET 0.000000 -0.011367 -0.144052
					CHANNELS 3 Xrotation Yrotation Zrotation
					JOINT Neck_virtual
					{
						OFFSET 0.000000 0.000000 0.000000
						CHANNELS 3 Xrotation Yrotation Zrotation
						JOINT Neck
						{
							OFFSET 0.000000 -0.012788 -0.162059
							CHANNELS 3 Xrotation Yrotation Zrotation
							JOINT Head
							{
								OFFSET 0.000000 -0.019313 -0.077391
								CHANNELS 3 Xrotation Yrotation Zrotation
								JOINT HeadTop_End
								{
									OFFSET 0.000000 -0.142419 -0.570699
									CHANNELS 3 Xrotation Yrotation Zrotation
									End Site
									{
										OFFSET 0 0 0
									}
								}
							}
						}
					}
					JOINT LeftShoulder_virtual
					{
						OFFSET 0.000000 0.000000 0.000000
						CHANNELS 3 Xrotation Yrotation Zrotation
						JOINT LeftShoulder
						{
							OFFSET 0.059117 -0.013497 -0.154003
							CHANNELS 3 Xrotation Yrotation Zrotation
							JOINT LeftArm
							{
								OFFSET 0.105067 -0.001420 0.016848
								CHANNELS 3 Xrotation Yrotation Zrotation
								JOINT LeftForeArm
								{
									OFFSET 0.311627 -0.003307 -0.007856
									CHANNELS 3 Xrotation Yrotation Zrotation
									JOINT LeftHand
									{
										OFFSET 0.267365 -0.006620 -0.009061
										CHANNELS 3 Xrotation Yrotation Zrotation
										End Site
										{
											OFFSET 0 0 0
										}
									}
								}
							}
						}
					}
					JOINT RightShoulder_virtual
					{
						OFFSET 0.000000 0.000000 0.000000
						CHANNELS 3 Xrotation Yrotation Zrotation
						JOINT RightShoulder
						{
							OFFSET -0.059117 -0.012078 -0.154003
							CHANNELS 3 Xrotation Yrotation Zrotation
							JOINT RightArm
							{
								OFFSET -0.105067 0.001420 0.016849
								CHANNELS 3 Xrotation Yrotation Zrotation
								JOINT RightForeArm
								{
									OFFSET -0.311626 -0.007328 -0.007857
									CHANNELS 3 Xrotation Yrotation Zrotation
									JOINT RightHand
									{
										OFFSET -0.267364 -0.007689 -0.009061
										CHANNELS 3 Xrotation Yrotation Zrotation
										End Site
										{
											OFFSET 0 0 0
										}
									}
								}
							}
						}
					}
				}
			}
		}
	}
}
MOTION
Frames: 5
Frame Time: 0.03333333
-0.000437 0.934139 0.006428 0.000000 0.000000 0.000000 88.835694 7.470029 -129.949909 -15.099380 6.880272 3.478699 30.312076 3.152813 7.339651 -11.518399 -8.202003 12.316167 -0.956360 -0.064469 -0.000095 0.000000 0.000000 0.000000 88.757748 7.092972 -127.968321 -12.418548 -9.160915 3.824172 30.903935 5.715002 10.981605 -13.919598 5.981500 21.316529 -2.533142 -0.357904 -0.009183 0.000000 0.000000 0.000000 89.162614 7.394913 -128.242225 9.303724 3.611378 -13.027402 0.748527 -8.390883 -1.887899 0.000000 0.000000 0.000000 1.007294 -8.274348 -1.684757 -5.538909 -7.708372 6.678594 -14.788857 14.694249 46.148170 0.000000 0.000000 0.000000 1.013148 -8.064681 -1.691555 0.121733 3.338205 -2.668568 57.365823 -10.576829 41.855106 -1.947547 -4.022654 73.421118 0.000000 0.000000 0.000000 1.001540 -8.387191 -1.732755 -0.620451 -17.806078 -8.224793 5.030738 10.885818 -20.943602 -1.277145 2.847242 -6.421285 0.000000 0.000000 0.000000 
-0.036213 0.913083 0.024829 0.000000 0.000000 0.000000 89.040388 9.146845 -132.196672 -15.872562 8.850433 3.834557 34.697023 6.147150 8.610785 -13.786763 -10.934506 15.092317 -2.034123 -0.059712 0.001609 0.000000 0.000000 0.000000 88.441217 10.010844 -136.074799 -11.567465 -6.636401 8.157169 39.689717 6.050457 10.570314 -16.639135 3.740778 20.665991 -2.218474 0.426019 -0.003409 0.000000 0.000000 0.000000 89.247835 9.132614 -132.916875 13.535747 3.419042 -12.577787 1.577361 -8.121313 -1.928957 0.000000 0.000000 0.000000 1.778203 -8.216571 -1.739701 -6.912348 -8.243535 7.113362 -19.447128 11.249560 50.858897 0.000000 0.000000 0.000000 1.856412 -8.138838 -1.716251 0.161387 3.148907 -1.559606 46.707685 -16.885034 36.021557 -2.189138 -4.232045 71.426560 0.000000 0.000000 0.000000 1.744808 -8.075530 -1.728600 -0.374224 -17.491063 -5.929505 -20.141536 11.481823 -9.520435 -0.326509 2.697795 -7.772825 0.000000 0.000000 0.000000 
-0.063372 0.888280 0.042300 0.000000 0.000000 0.000000 87.644817 11.361172 -134.886537 -15.857408 13.249930 2.070611 41.564676 8.619578 9.034376 -19.370534 -13.031430 13.849336 -0.018992 -0.071654 -0.001253 0.000000 0.000000 0.000000 88.234276 12.698697 -148.053544 -9.356983 -2.529277 9.716263 45.545747 7.703516 11.699314 -22.797534 2.588207 20.874337 -1.033587 0.229987 0.006017 0.000000 0.000000 0.000000 85.923288 11.949066 -131.145998 17.913988 3.911597 -10.390119 1.575241 -5.803340 -1.578698 0.000000 0.000000 0.000000 1.733040 -5.874502 -1.355922 -6.652165 -6.856650 7.428016 -20.621733 8.286182 50.663936 0.000000 0.000000 0.000000 1.784091 -5.783779 -1.354813 0.736706 0.560727 3.501405 39.287016 -29.811119 36.589245 -2.163230 -4.168733 70.903292 0.000000 0.000000 0.000000 1.657413 -5.715780 -1.324186 -0.067744 -14.612167 -1.618887 -34.001064 11.490922 -8.068854 -0.539068 2.621533 -8.297770 0.000000 0.000000 0.000000 
-0.075119 0.867773 0.052260 0.000000 0.000000 0.000000 83.344591 15.550951 -129.230895 -14.624601 18.729028 -2.708870 50.525559 9.764607 8.606180 -24.066131 -12.123152 9.297537 -1.493463 -0.161110 -0.012029 0.000000 0.000000 0.000000 86.387256 15.110385 -145.788421 -7.129483 0.382589 9.187951 50.304343 8.890308 12.035621 -25.870602 1.420468 19.108282 -2.578690 -0.078161 0.001122 0.000000 0.000000 0.000000 81.118277 15.862327 -123.068643 21.712528 4.881381 -6.485671 1.832146 -3.568430 -1.056549 0.000000 0.000000 0.000000 1.858951 -3.510387 -0.795971 -6.606330 -4.587623 6.475225 -19.727179 7.377130 42.439128 0.000000 0.000000 0.000000 1.933923 -3.426158 -0.789240 1.436419 -1.688632 7.389612 27.396835 -37.671505 40.278438 -2.014423 -4.410114 85.046688 0.000000 0.000000 0.000000 1.906201 -3.605913 -0.810693 0.105872 -10.866812 0.677988 -35.194329 15.718751 -18.897277 -0.994863 2.653773 -9.527756 0.000000 0.000000 0.000000 
-0.073120 0.862184 0.054053 0.000000 0.000000 0.000000 80.652909 18.712008 -124.650993 -11.438591 22.280688 -9.594172 55.771998 9.101598 8.041247 -23.360589 -9.000607 5.128579 -5.130627 -0.342405 -0.000145 0.000000 0.000000 0.000000 82.509778 16.687508 -131.732165 -7.387193 0.930948 7.851915 52.569190 7.590239 11.353652 -26.087557 2.055588 12.107426 -2.780772 -0.136574 -0.022313 0.000000 0.000000 0.000000 78.847916 18.126103 -120.418202 23.290011 5.946798 -2.108117 2.238939 -2.740463 -0.463286 0.000000 0.000000 0.000000 2.306296 -2.684504 -0.222833 -8.064956 -3.570873 4.426490 -18.579050 7.058267 29.590162 0.000000 0.000000 0.000000 2.325412 -2.565503 -0.238841 1.461443 -0.717822 8.563774 11.957768 -34.123731 44.807018 -1.841476 -4.810331 99.978547 0.000000 0.000000 0.000000 2.277301 -2.792918 -0.282942 0.251724 -10.206761 -0.926707 -29.402650 17.443414 -30.655815 -1.585155 3.044439 -25.263140 0.000000 0.000000 0.000000 
